<svg width="68" height="68" viewBox="0 0 68 68" fill="none" xmlns="http://www.w3.org/2000/svg">
<path d="M67.2681 20.2669C67.1119 16.7247 66.539 14.2894 65.7185 12.1792C64.872 9.93929 63.5696 7.93389 61.8634 6.2668C60.1963 4.57376 58.1776 3.2582 55.9637 2.4249C53.8413 1.60433 51.4187 1.0315 47.8765 0.875326C44.3078 0.70592 43.1748 0.666748 34.1236 0.666748C25.0724 0.666748 23.9394 0.70592 20.384 0.862099C16.8417 1.01828 14.4064 1.59161 12.2968 2.41168C10.0563 3.2582 8.05095 4.56053 6.38386 6.2668C4.69082 7.93389 3.37577 9.95252 2.54197 12.1665C1.72139 14.2894 1.14857 16.7114 0.992391 20.2537C0.822985 23.8224 0.783813 24.9553 0.783813 34.0066C0.783813 43.0578 0.822985 44.1908 0.979164 47.7463C1.13534 51.2885 1.70868 53.7238 2.52925 55.834C3.37577 58.0739 4.69082 60.0793 6.38386 61.7464C8.05095 63.4394 10.0696 64.755 12.2835 65.5883C14.4064 66.4089 16.8285 66.9817 20.3712 67.1379C23.9262 67.2945 25.0597 67.3332 34.1109 67.3332C43.1621 67.3332 44.2951 67.2945 47.8505 67.1379C51.3928 66.9817 53.828 66.4089 55.9377 65.5883C60.4181 63.8561 63.9603 60.3138 65.6925 55.834C66.5126 53.7111 67.0859 51.2885 67.2421 47.7463C67.3983 44.1908 67.4375 43.0578 67.4375 34.0066C67.4375 24.9553 67.4242 23.8224 67.2681 20.2669ZM61.2646 47.4858C61.1211 50.7416 60.5742 52.4998 60.1184 53.6719C58.9982 56.5762 56.6932 58.8812 53.7889 60.0015C52.6168 60.4573 50.8459 61.0042 47.6028 61.1471C44.0865 61.3038 43.0319 61.3425 34.1368 61.3425C25.2418 61.3425 24.174 61.3038 20.6704 61.1471C17.4145 61.0042 15.6564 60.4573 14.4843 60.0015C13.039 59.4673 11.7234 58.6208 10.6556 57.5138C9.54863 56.4327 8.70212 55.1304 8.16795 53.6851C7.71214 52.513 7.16526 50.7416 7.02231 47.499C6.86562 43.9827 6.82696 42.9276 6.82696 34.0325C6.82696 25.1375 6.86562 24.0697 7.02231 20.5666C7.16526 17.3107 7.71214 15.5526 8.16795 14.3805C8.70212 12.9347 9.54863 11.6196 10.6688 10.5513C11.7494 9.4443 13.0517 8.59778 14.4975 8.06413C15.6696 7.60831 17.441 7.06143 20.6836 6.91797C24.1999 6.76179 25.255 6.72262 34.1496 6.72262C43.0578 6.72262 44.1124 6.76179 47.616 6.91797C50.8718 7.06143 52.63 7.60831 53.8021 8.06413C55.2474 8.59778 56.563 9.4443 57.6308 10.5513C58.7377 11.6323 59.5843 12.9347 60.1184 14.3805C60.5742 15.5526 61.1211 17.3234 61.2646 20.5666C61.4208 24.0829 61.4599 25.1375 61.4599 34.0325C61.4599 42.9276 61.4208 43.9695 61.2646 47.4858Z" fill="white"/>
<path d="M34.1236 16.8809C24.6689 16.8809 16.9979 24.5514 16.9979 34.0066C16.9979 43.4618 24.6689 51.1324 34.1236 51.1324C43.5788 51.1324 51.2493 43.4618 51.2493 34.0066C51.2493 24.5514 43.5788 16.8809 34.1236 16.8809ZM34.1236 45.1157C27.9899 45.1157 23.0146 40.1408 23.0146 34.0066C23.0146 27.8724 27.9899 22.8976 34.1236 22.8976C40.2578 22.8976 45.2326 27.8724 45.2326 34.0066C45.2326 40.1408 40.2578 45.1157 34.1236 45.1157Z" fill="white"/>
<path d="M55.9252 16.2037C55.9252 18.4116 54.1349 20.2018 51.9266 20.2018C49.7187 20.2018 47.9285 18.4116 47.9285 16.2037C47.9285 13.9954 49.7187 12.2057 51.9266 12.2057C54.1349 12.2057 55.9252 13.9954 55.9252 16.2037Z" fill="white"/>
</svg>
